<svg width="23" height="23" viewBox="0 0 23 23" fill="none" xmlns="http://www.w3.org/2000/svg">
<path d="M15.8495 6.12585L11.5463 9.48418L7.14465 6.12585V6.12676L7.14997 6.1313V10.8338L11.4967 14.2647L15.8495 10.9663V6.12585Z" fill="#EA4335"/>
<path d="M16.9791 5.30897L15.849 6.12585V10.9663L19.405 8.23615V6.59147C19.405 6.59147 18.9734 4.24248 16.9791 5.30897Z" fill="#FBBC05"/>
<path d="M15.849 10.9663V17.2445H18.5745C18.5745 17.2445 19.3501 17.1647 19.4059 16.2806V8.23615L15.849 10.9663Z" fill="#34A853"/>
<path d="M7.15017 17.2501V10.8339L7.14465 10.8293L7.15017 17.2501Z" fill="#C5221F"/>
<path d="M7.14448 6.12664L6.02058 5.3143C4.02629 4.24781 3.59375 6.5959 3.59375 6.5959V8.24053L7.14448 10.8292V6.12664Z" fill="#C5221F"/>
<path d="M7.14465 6.12689V10.8295L7.15017 10.834V6.13143L7.14465 6.12689Z" fill="#C5221F"/>
<path d="M3.59375 8.24176V16.2862C3.64871 17.1712 4.42515 17.2502 4.42515 17.2502H7.15068L7.14448 10.8295L3.59375 8.24176Z" fill="#4285F4"/>
</svg>
